<svg width="25" height="24" viewBox="0 0 25 24" fill="none" xmlns="http://www.w3.org/2000/svg">
<g id="Icon/Camera">
<g id="Camera">
<path id="Stroke 2" fill-rule="evenodd" clip-rule="evenodd" d="M16.1144 12.4983C16.1144 10.7614 14.706 9.35303 12.9691 9.35303C11.2323 9.35303 9.82385 10.7614 9.82385 12.4983C9.82385 14.2351 11.2323 15.6436 12.9691 15.6436C14.706 15.6436 16.1144 14.2351 16.1144 12.4983Z" stroke="#586267" stroke-width="1.5" stroke-linecap="round" stroke-linejoin="round"/>
<path id="Stroke 4" fill-rule="evenodd" clip-rule="evenodd" d="M12.9688 20.2002C21.0141 20.2002 21.972 17.7897 21.972 12.5665C21.972 8.90545 21.4877 6.94651 18.4383 6.1044C18.1583 6.01598 17.8477 5.84756 17.5962 5.57072C17.1898 5.12545 16.893 3.75809 15.912 3.3444C14.9309 2.93177 10.9909 2.95072 10.0256 3.3444C9.06143 3.73914 8.74774 5.12545 8.34143 5.57072C8.08985 5.84756 7.78037 6.01598 7.49932 6.1044C4.44985 6.94651 3.96564 8.90545 3.96564 12.5665C3.96564 17.7897 4.92353 20.2002 12.9688 20.2002Z" stroke="#586267" stroke-width="1.5" stroke-linecap="round" stroke-linejoin="round"/>
<path id="Stroke 11" d="M17.8808 9H17.8898" stroke="#586267" stroke-width="1.5" stroke-linecap="round" stroke-linejoin="round"/>
</g>
</g>
</svg>
