<svg width="25" height="25" viewBox="0 0 25 25" fill="none" xmlns="http://www.w3.org/2000/svg">
<path d="M13.6692 3.20102L8.69504 8.8858L8.69503 8.88581C8.44173 9.17529 8.31508 9.32004 8.22482 9.48401C8.14477 9.62945 8.08607 9.78566 8.05055 9.94783C8.0105 10.1307 8.0105 10.323 8.0105 10.7077V15.5473C8.0105 16.5157 8.0105 16.9999 8.19897 17.3698C8.36475 17.6952 8.62928 17.9597 8.95464 18.1255C9.32453 18.314 9.80874 18.314 10.7772 18.314H16.2723C17.0291 18.314 17.4075 18.314 17.7244 18.1832C18.004 18.0678 18.2484 17.8811 18.4333 17.6417C18.6428 17.3704 18.7424 17.0054 18.9415 16.2753L20.0262 12.2982L20.0262 12.2982C20.3502 11.1101 20.5122 10.516 20.3748 10.0468C20.2544 9.63567 19.9857 9.28388 19.6208 9.05957C19.2043 8.80355 18.5885 8.80355 17.357 8.80355H14.0626L15.8699 4.58645C16.2422 3.71778 15.605 2.75146 14.6599 2.75146C14.2803 2.75146 13.9192 2.91533 13.6692 3.20102Z" stroke="#606067" stroke-width="1.29688" stroke-linecap="round" stroke-linejoin="round"/>
<path d="M4.38983 10.4441L4.38983 18.314" stroke="#1999D6" stroke-width="1.72917" stroke-linecap="round" stroke-linejoin="round"/>
</svg>
