<svg width="22" height="24" viewBox="0 0 22 24" fill="none" xmlns="http://www.w3.org/2000/svg">
<path fill-rule="evenodd" clip-rule="evenodd" d="M6.59493 8.17228L10.9688 2.45944C11.1905 2.16984 11.5345 2 11.8992 2C12.7174 2 13.2837 2.81717 12.9964 3.58323L11.3206 8.05208H13.8681C15.0642 8.05208 15.6623 8.05208 16.0736 8.29948C16.4341 8.51634 16.7032 8.85723 16.8305 9.25827C16.9757 9.71576 16.8368 10.2975 16.5592 11.4609L15.6101 15.438C15.429 16.197 15.3384 16.5765 15.1299 16.8593C14.946 17.1089 14.6984 17.3044 14.413 17.4254C14.0894 17.5625 13.6993 17.5625 12.919 17.5625H8.79168C7.82325 17.5625 7.33904 17.5625 6.96915 17.374C6.64379 17.2083 6.37926 16.9437 6.21348 16.6184C6.02501 16.2485 6.02501 15.7643 6.02501 14.7958V9.85417C6.02501 9.50644 6.02501 9.33258 6.05813 9.16581C6.08751 9.01783 6.13614 8.87434 6.20276 8.73898C6.27785 8.58643 6.38354 8.44838 6.59492 8.17229L6.59493 8.17228ZM4.59642 9.88932C4.59642 9.41183 4.20933 9.02474 3.73183 9.02474C3.25434 9.02474 2.86725 9.41183 2.86725 9.88932V16.9141C2.86725 17.3916 3.25434 17.7786 3.73183 17.7786C4.20933 17.7786 4.59642 17.3916 4.59642 16.9141L4.59642 9.88932Z" fill="#1999D6"/>
</svg>
