<svg width="25" height="25" viewBox="0 0 25 25" fill="none" xmlns="http://www.w3.org/2000/svg">
<path d="M8.96399 13.7621L15.4145 17.521" stroke="#1999D6" stroke-width="1.5" stroke-linecap="round" stroke-linejoin="round"/>
<path d="M15.4051 7.151L8.96399 10.9099" stroke="#1999D6" stroke-width="1.5" stroke-linecap="round" stroke-linejoin="round"/>
<path d="M17.8512 8.55821C19.416 8.55821 20.6845 7.28968 20.6845 5.72487C20.6845 4.16007 19.416 2.89154 17.8512 2.89154C16.2864 2.89154 15.0179 4.16007 15.0179 5.72487C15.0179 7.28968 16.2864 8.55821 17.8512 8.55821Z" stroke="#606067" stroke-width="1.5" stroke-linecap="round" stroke-linejoin="round"/>
<path d="M6.5179 15.1693C8.08271 15.1693 9.35124 13.9008 9.35124 12.336C9.35124 10.7712 8.08271 9.50262 6.5179 9.50262C4.9531 9.50262 3.68457 10.7712 3.68457 12.336C3.68457 13.9008 4.9531 15.1693 6.5179 15.1693Z" stroke="#606067" stroke-width="1.5" stroke-linecap="round" stroke-linejoin="round"/>
<path d="M17.8512 21.7804C19.416 21.7804 20.6845 20.5119 20.6845 18.9471C20.6845 17.3823 19.416 16.1138 17.8512 16.1138C16.2864 16.1138 15.0179 17.3823 15.0179 18.9471C15.0179 20.5119 16.2864 21.7804 17.8512 21.7804Z" stroke="#606067" stroke-width="1.5" stroke-linecap="round" stroke-linejoin="round"/>
</svg>
