<svg width="29" height="29" viewBox="0 0 29 29" fill="none" xmlns="http://www.w3.org/2000/svg">
<circle cx="14.1846" cy="14.3001" r="13.5" fill="url(#paint0_linear)" stroke="white"/>
<path d="M19.8758 9.64766C18.3644 7.67565 15.3863 7.92205 14.1846 10.0333C12.9828 7.92205 10.0048 7.67565 8.49333 9.64767L8.28326 9.92175C7.005 11.5895 7.18957 13.9679 8.7094 15.4132L13.4426 19.9142C13.5133 19.9815 13.5906 20.0551 13.6635 20.1119C13.7474 20.1773 13.8646 20.2529 14.0211 20.284C14.1291 20.3055 14.2401 20.3055 14.348 20.284C14.5045 20.2529 14.6217 20.1773 14.7056 20.1119C14.7785 20.0551 14.8558 19.9815 14.9266 19.9142L19.6597 15.4132C21.1796 13.9679 21.3641 11.5895 20.0859 9.92175L19.8758 9.64766Z" fill="white"/>
<defs>
<linearGradient id="paint0_linear" x1="14.1846" y1="1.30011" x2="14.1846" y2="27.3001" gradientUnits="userSpaceOnUse">
<stop offset="0.09375" stop-color="#FF727A"/>
<stop offset="1" stop-color="#F0000E"/>
</linearGradient>
</defs>
</svg>
