<svg width="29" height="29" viewBox="0 0 29 29" fill="none" xmlns="http://www.w3.org/2000/svg">
<circle cx="14.1846" cy="14.2999" r="13.5" fill="url(#paint0_linear)" stroke="white"/>
<path fill-rule="evenodd" clip-rule="evenodd" d="M10.4535 12.3229L14.7808 7.3774C14.9977 7.12958 15.3109 6.98743 15.6402 6.98743C16.4601 6.98743 17.0128 7.82568 16.6899 8.57922L15.1221 12.2374H18.0453C19.0914 12.2374 19.6144 12.2374 19.9682 12.4549C20.2782 12.6454 20.5064 12.9442 20.6087 13.2934C20.7254 13.692 20.5877 14.1966 20.3125 15.2058L19.3443 18.7558C19.1752 19.3759 19.0906 19.686 18.9127 19.9164C18.7556 20.1198 18.548 20.2784 18.3105 20.3764C18.0414 20.4874 17.72 20.4874 17.0771 20.4874H12.2221C11.3995 20.4874 10.9882 20.4874 10.674 20.3273C10.3976 20.1865 10.173 19.9618 10.0321 19.6855C9.87206 19.3713 9.87206 18.96 9.87206 18.1374V13.8704C9.87206 13.5437 9.87206 13.3803 9.90608 13.225C9.93625 13.0873 9.98611 12.9546 10.0541 12.831C10.1308 12.6918 10.2383 12.5688 10.4535 12.3229ZM8.62207 13.7215C8.62207 13.1692 8.17436 12.7215 7.62207 12.7215C7.06979 12.7215 6.62207 13.1692 6.62207 13.7215V19.7534C6.62207 20.3057 7.06979 20.7534 7.62207 20.7534C8.17436 20.7534 8.62207 20.3057 8.62207 19.7534L8.62207 13.7215Z" fill="white"/>
<defs>
<linearGradient id="paint0_linear" x1="14.1846" y1="1.29993" x2="14.1846" y2="27.2999" gradientUnits="userSpaceOnUse">
<stop stop-color="#5BC7FB"/>
<stop offset="0.755208" stop-color="#1999D6"/>
</linearGradient>
</defs>
</svg>
