<svg width="25" height="24" viewBox="0 0 25 24" fill="none" xmlns="http://www.w3.org/2000/svg">
<g id="Iconl/Image 2">
<g id="Image 2">
<path id="Stroke 1" fill-rule="evenodd" clip-rule="evenodd" d="M3.42627 12C3.42627 18.937 5.73927 21.25 12.6763 21.25C19.6133 21.25 21.9263 18.937 21.9263 12C21.9263 5.063 19.6133 2.75 12.6763 2.75C5.73927 2.75 3.42627 5.063 3.42627 12Z" stroke="#586267" stroke-width="1.5" stroke-linecap="round" stroke-linejoin="round"/>
<path id="Stroke 3" fill-rule="evenodd" clip-rule="evenodd" d="M11.2749 8.78419C11.2749 9.75719 10.4869 10.5452 9.51387 10.5452C8.54187 10.5452 7.75287 9.75719 7.75287 8.78419C7.75287 7.81119 8.54187 7.02319 9.51387 7.02319C10.4869 7.02319 11.2749 7.81119 11.2749 8.78419Z" stroke="#586267" stroke-width="1.5" stroke-linecap="round" stroke-linejoin="round"/>
<path id="Stroke 5" d="M21.7964 14.6664C20.9154 13.7604 19.6694 11.9294 17.3804 11.9294C15.0914 11.9294 15.0414 15.9674 12.7054 15.9674C10.3684 15.9674 9.42736 14.5964 7.90436 15.3124C6.38236 16.0274 5.14236 18.8734 5.14236 18.8734" stroke="#586267" stroke-width="1.5" stroke-linecap="round" stroke-linejoin="round"/>
</g>
</g>
</svg>
