<svg width="22" height="22" viewBox="0 0 22 22" fill="none" xmlns="http://www.w3.org/2000/svg">
<path d="M1.2444 4.70204L3.65554 9.90448C3.8136 10.2481 3.89544 10.6218 3.89544 11C3.89544 11.3782 3.8136 11.7519 3.65554 12.0955L1.2444 17.2979C1.0154 17.7882 0.945017 18.3377 1.04303 18.8699C1.14104 19.4021 1.40257 19.8905 1.79121 20.267C2.17986 20.6435 2.67626 20.8895 3.21127 20.9706C3.74628 21.0517 4.29327 20.964 4.77606 20.7196L19.553 13.3361C19.987 13.1193 20.3521 12.786 20.6073 12.3733C20.8624 11.9607 20.9975 11.4851 20.9975 11C20.9975 10.5148 20.8624 10.0393 20.6073 9.62668C20.3521 9.21405 19.987 8.88066 19.553 8.6639L4.77606 1.28043C4.29327 1.03603 3.74628 0.948276 3.21127 1.0294C2.67626 1.11052 2.17986 1.35647 1.79121 1.73301C1.40257 2.10954 1.14104 2.59791 1.04303 3.13008C0.945017 3.66226 1.0154 4.21175 1.2444 4.70204V4.70204Z" stroke="#586267" stroke-width="1.5" stroke-miterlimit="10"/>
</svg>
