<svg width="21" height="21" viewBox="0 0 21 21" fill="none" xmlns="http://www.w3.org/2000/svg">
<path fill-rule="evenodd" clip-rule="evenodd" d="M13.1729 9.53873C12.9875 9.39519 12.7882 9.2677 12.5772 9.15838L12.5711 9.16337C12.9892 8.65332 13.239 8.00772 13.239 7.30556C13.239 6.27023 12.696 5.35788 11.871 4.82171C12.0541 4.78066 12.2448 4.75897 12.4407 4.75897C13.8317 4.75897 14.9593 5.85242 14.9593 7.20126C14.9593 8.30314 14.2068 9.23459 13.1729 9.53873ZM14.1595 15.3926C14.4603 15.1352 14.6414 14.7607 14.6414 14.3571L14.6414 13.2179V13.2179C14.6415 12.5501 14.6415 12.1251 14.5664 11.7586C14.4452 11.1679 14.1843 10.6279 13.8181 10.172C14.1081 10.0454 14.3762 9.87997 14.6155 9.68264C15.4442 10.112 16.0518 10.884 16.2413 11.8079C16.3027 12.1075 16.3027 12.4549 16.3026 13.0007L16.3026 13.9318C16.3026 14.3933 16.0128 14.8084 15.5708 14.9798C15.1107 15.1583 14.6384 15.2959 14.1595 15.3926Z" fill="#7C7C80"/>
<path d="M9.68635 4.78247C8.2565 4.78247 7.09737 5.90647 7.09737 7.29298C7.09737 8.6795 8.2565 9.80349 9.68635 9.80349C11.1162 9.80349 12.2753 8.6795 12.2753 7.29298C12.2753 5.90647 11.1162 4.78247 9.68635 4.78247Z" fill="#7C7C80"/>
<path d="M7.45084 9.84368C6.59893 10.285 5.97439 11.0787 5.77958 12.0284C5.71642 12.3363 5.71647 12.6934 5.71656 13.2544L5.71657 14.2115C5.71657 14.686 6.01446 15.1126 6.46877 15.2889C8.53426 16.09 10.8384 16.09 12.9039 15.2889C13.3582 15.1126 13.6561 14.686 13.6561 14.2115L13.6561 13.2544C13.6562 12.6934 13.6563 12.3363 13.5931 12.0284C13.3983 11.0787 12.7738 10.285 11.9219 9.84368C11.3196 10.3405 10.5391 10.6403 9.68635 10.6403C8.83364 10.6403 8.05314 10.3405 7.45084 9.84368Z" fill="#7C7C80"/>
</svg>
