<svg width="25" height="24" viewBox="0 0 25 24" fill="none" xmlns="http://www.w3.org/2000/svg">
<path d="M12.0522 10.5C12.5182 10.5 12.7512 10.5 12.9349 10.5761C13.18 10.6776 13.3746 10.8723 13.4761 11.1173C13.5522 11.3011 13.5522 11.5341 13.5522 12C13.5522 12.4659 13.5522 12.6989 13.4761 12.8827C13.3746 13.1277 13.18 13.3224 12.9349 13.4239C12.7512 13.5 12.5182 13.5 12.0522 13.5C11.5863 13.5 11.3533 13.5 11.1696 13.4239C10.9245 13.3224 10.7299 13.1277 10.6284 12.8827C10.5522 12.6989 10.5522 12.4659 10.5522 12C10.5522 11.5341 10.5522 11.3011 10.6284 11.1173C10.7299 10.8723 10.9245 10.6776 11.1696 10.5761C11.3533 10.5 11.5863 10.5 12.0522 10.5Z" fill="#7C7C80"/>
<path d="M12.0522 15.5C12.5182 15.5 12.7512 15.5 12.9349 15.5761C13.18 15.6776 13.3746 15.8723 13.4761 16.1173C13.5522 16.3011 13.5522 16.5341 13.5522 17C13.5522 17.4659 13.5522 17.6989 13.4761 17.8827C13.3746 18.1277 13.18 18.3224 12.9349 18.4239C12.7512 18.5 12.5182 18.5 12.0522 18.5C11.5863 18.5 11.3533 18.5 11.1696 18.4239C10.9245 18.3224 10.7299 18.1277 10.6284 17.8827C10.5522 17.6989 10.5522 17.4659 10.5522 17C10.5522 16.5341 10.5522 16.3011 10.6284 16.1173C10.7299 15.8723 10.9245 15.6776 11.1696 15.5761C11.3533 15.5 11.5863 15.5 12.0522 15.5Z" fill="#7C7C80"/>
<path d="M12.0522 5.5C12.5182 5.5 12.7512 5.5 12.9349 5.57612C13.18 5.67761 13.3746 5.87229 13.4761 6.11732C13.5522 6.30109 13.5522 6.53406 13.5522 7C13.5522 7.46594 13.5522 7.69891 13.4761 7.88268C13.3746 8.12771 13.18 8.32239 12.9349 8.42388C12.7512 8.5 12.5182 8.5 12.0522 8.5C11.5863 8.5 11.3533 8.5 11.1696 8.42388C10.9245 8.32239 10.7299 8.12771 10.6284 7.88268C10.5522 7.69891 10.5522 7.46594 10.5522 7C10.5522 6.53406 10.5522 6.30109 10.6284 6.11732C10.7299 5.87229 10.9245 5.67761 11.1696 5.57612C11.3533 5.5 11.5863 5.5 12.0522 5.5Z" fill="#7C7C80"/>
</svg>
