<svg width="39" height="39" viewBox="0 0 39 39" fill="none" xmlns="http://www.w3.org/2000/svg">
<circle cx="19.2471" cy="19.336" r="18.5" fill="url(#paint0_linear)" stroke="white"/>
<path fill-rule="evenodd" clip-rule="evenodd" d="M13.8574 16.8541L20.0727 9.7509C20.1056 9.71329 20.122 9.69449 20.1384 9.67699C20.4048 9.39185 20.7737 9.22444 21.1637 9.21172C21.1877 9.21094 21.2127 9.21094 21.2626 9.21094C21.4133 9.21094 21.4887 9.21094 21.5441 9.21513C22.5021 9.28771 23.1336 10.2454 22.823 11.1546C22.805 11.2072 22.7753 11.2764 22.716 11.415L20.5451 16.4802H25.7761C26.8221 16.4802 27.3452 16.4802 27.699 16.6976C28.009 16.8882 28.2372 17.187 28.3394 17.5362C28.4561 17.9347 28.3185 18.4393 28.0433 19.4485L28.0433 19.4485L26.2097 26.1716L26.2097 26.1716C26.0406 26.7917 25.956 27.1018 25.7781 27.3322C25.621 27.5356 25.4134 27.6942 25.1759 27.7922C24.9068 27.9032 24.5854 27.9032 23.9425 27.9032H15.6259C14.8033 27.9032 14.3921 27.9032 14.0779 27.7432C13.8015 27.6023 13.5768 27.3777 13.436 27.1013C13.2759 26.7871 13.2759 26.3758 13.2759 25.5532V18.4016C13.2759 18.0749 13.2759 17.9115 13.3099 17.7562C13.3401 17.6185 13.39 17.4858 13.458 17.3622C13.5346 17.223 13.6422 17.1 13.8574 16.8541L13.8574 16.8541ZM11.1606 18.5351C11.1606 17.9828 10.7129 17.5351 10.1606 17.5351C9.6083 17.5351 9.16058 17.9828 9.16058 18.5351V26.887C9.16058 27.4393 9.6083 27.887 10.1606 27.887C10.7129 27.887 11.1606 27.4393 11.1606 26.887L11.1606 18.5351Z" fill="white"/>
<defs>
<linearGradient id="paint0_linear" x1="19.2471" y1="1.336" x2="19.2471" y2="37.336" gradientUnits="userSpaceOnUse">
<stop stop-color="#5BC7FB"/>
<stop offset="0.755208" stop-color="#1999D6"/>
</linearGradient>
</defs>
</svg>
