<svg xmlns="http://www.w3.org/2000/svg" xmlns:xlink="http://www.w3.org/1999/xlink" viewBox="0 0 417.6 131.2"><defs><linearGradient id="a"><stop offset="0" stop-color="#0a4f25"/><stop offset="1" stop-color="#0f6c32"/></linearGradient><linearGradient xlink:href="#a" id="b" x1="181.1" y1=".2" x2="178.6" y2="94.6" gradientUnits="userSpaceOnUse"/></defs><path class="st1" d="M211.7.2v47.2L181.1.2h-28.3v61.3L131.5.2H118l10 13h-23.6l9.4-11.8.8-1.2h-13.8L82 52.1S84.4 4.9 41.9 2.6H1.8L.6 1.3v94.4h40.1s20.1-1.2 31.8-15.3l-4.7 14.2h28.3l4.7-14.2h28.3l4.7 14.2h44.8V49.7l33 44.8h25.9V.2h-25.8zm-159.2 53s0 7.1-7.1 11.8c0 0-4.7 4.7-16.5 4.7V27.3H36s16.5 2.4 16.5 18.9v7zm56.6 2.4l7.1-14.2 7.1 14.2h-14.2zm299.6-42.5h-11.8l8.3-13h-16.5v16.5S384 4.8 367.5.1h-118v28.3h21.2v66.1h25.9v-66h21.2v66.1h25.9V70.9l18.9 23.6H417V4.9l-8.3 8.2zm-54.2 30.7H345V24.9h7.1s7.1 2.4 7.1 11.8c0 0 0 4.7-4.7 7.1zm35.3 40.1l-16.5-23.6s7.1-2.4 16.5-16.5v40.1z" fill="url(#b)"/><path d="M44.2 104c-1.5 0-2.3.7-2.4 2h.4c.1-.4.3-.7.5-.8.2-.2.4-.3.8-.3.3 0 .8.2 1.6.5 1 .4 1.8.6 2.5.6.4 0 .8 0 1.2-.2.8-.4 1.2-.9 1.2-1.8h-.4c-.2.7-.6 1-1.2 1-.3 0-.8-.1-1.6-.4-.9-.3-1.4-.5-1.6-.5-.3-.1-.6-.1-1-.1zm66.2.4l4.2 4.4h.5l-1.5-4.4h-3.2zm153.9 0l-1.5 4.4h.5l4.2-4.4h-3.2zm-81.7.1l-2.7 4.2h.4l3.3-2.7 3.9 2.7h.4l-2.7-4.2h-2.6zm-138 1.9l-2.5 1.8h.4l3.2-1 3.3 1h.4l-2.4-1.8h-2.4zm270.6 0l-2.5 1.8h.4l3.2-1 3.3 1h.4l-2.4-1.8h-2.4zm-201.9 3.2l-6.8 14.1c-.6 1.3-1.1 2.1-1.6 2.5-.3.2-.8.4-1.6.5v.5h6.1v-.5c-.9-.1-1.5-.2-1.8-.4-.3-.2-.4-.4-.4-.7 0-.3.2-.8.5-1.5l1.3-2.7h7.5l1.1 2.4c.4.8.6 1.4.6 1.8 0 .3-.1.5-.4.7-.3.2-.8.3-1.6.3v.5h7.6v-.5c-.7-.1-1.4-.3-1.8-.6-.5-.3-1-1.1-1.5-2.2l-6.7-14.2h-.5zm70.3 0l-6.8 14.1c-.6 1.3-1.1 2.1-1.6 2.5-.3.2-.8.4-1.6.5v.5h6.1v-.5c-.9-.1-1.5-.2-1.8-.4-.3-.2-.4-.4-.4-.7 0-.3.2-.8.5-1.5l1.3-2.7h7.5l1.1 2.4c.4.8.6 1.4.6 1.8 0 .3-.1.5-.4.7-.3.2-.8.3-1.6.3v.5h7.6v-.5c-.7-.1-1.4-.3-1.8-.6-.5-.3-1-1.1-1.5-2.2l-6.7-14.2h-.5zm196.5 0l-6.8 14.1c-.6 1.3-1.1 2.1-1.6 2.5-.3.2-.8.4-1.6.5v.5h6.1v-.5c-.9-.1-1.5-.2-1.8-.4-.3-.2-.4-.4-.4-.7 0-.3.2-.8.5-1.5l1.3-2.7h7.5l1.1 2.4c.4.8.6 1.4.6 1.8 0 .3-.1.5-.4.7-.3.2-.8.3-1.6.3v.5h7.6v-.5c-.7-.1-1.4-.3-1.8-.6-.5-.3-1-1.1-1.5-2.2l-6.7-14.2h-.5zm-156.6.3l-.2 4h.5c0-.7.2-1.3.6-1.8.4-.4.8-.7 1.3-.9.4-.1 1-.2 1.9-.2h2.3v13.2c0 .9-.1 1.5-.3 1.8-.3.5-.9.7-1.7.7h-.7v.5h8.2v-.5h-.7c-.8 0-1.3-.1-1.7-.5-.3-.3-.4-.9-.4-2v-13.1h2.7c.8 0 1.4 0 1.9.3s.9.6 1.2 1.1c.2.3.3.8.4 1.5h.5l-.2-4v-.1h-15.6zm102.2 0l-.2 4h.5c0-.7.2-1.4.6-1.8.4-.4.8-.7 1.3-.9.4-.1 1-.2 1.9-.2h2.3v13.2c0 .9-.1 1.5-.3 1.8-.3.5-.9.7-1.7.7h-.7v.5h8.2v-.5h-.7c-.8 0-1.3-.1-1.7-.5-.3-.3-.4-.9-.4-2v-13.1h2.7c.8 0 1.4 0 1.9.3s.9.6 1.2 1.1c.2.3.3.8.4 1.5h.5l-.2-4v-.1h-15.6zM5.8 110v.4h.7c.7 0 1.2.2 1.6.6.3.3.4.9.4 2v11c0 1-.1 1.6-.3 1.9-.3.5-.9.7-1.7.7h-.7v.6h8.6c3.8 0 6.6-.9 8.4-2.7 1.6-1.6 2.4-3.6 2.4-6 0-1.8-.5-3.3-1.4-4.7-.9-1.4-2.1-2.3-3.6-2.9-1.5-.6-3.7-.9-6.6-.9H5.8zm21.1 0v.5h.7c.4 0 .9.1 1.3.3.3.1.5.3.6.5.1.3.2.8.2 1.7v11.1c0 1-.1 1.6-.3 1.9-.3.4-.9.6-1.7.6H27v.5h8.3v-.5h-.8c-.5 0-.9-.1-1.3-.3-.3-.1-.5-.3-.6-.5-.1-.3-.2-.8-.2-1.7V113c0-1 .2-1.6.4-1.9.3-.4.9-.6 1.7-.6h.7v-.5h-8.3zm9.7 0v.5h.7c.8 0 1.4.2 1.7.5.3.2.4.9.4 2v11c0 .9-.1 1.4-.2 1.7-.1.3-.3.5-.6.6-.4.2-.8.3-1.3.3h-.7v.5h14.9l1.7-4.3h-.6c-.6 1.1-1.2 1.9-1.8 2.4-.4.4-.9.7-1.4.8-.5.1-1.3.2-2.4.2h-3.3c-.6 0-.9 0-1.1-.1-.2-.1-.3-.2-.4-.4-.1-.2-.1-.6-.1-1.4v-5.6h4.2c.8 0 1.4.1 1.8.3.3.2.6.4.8.7.1.2.3.8.4 1.6h.5v-6h-.5c0 .9-.3 1.6-.8 2-.4.3-1.1.4-2.2.4h-4.2v-6.8h5.2c1 0 1.6.1 2 .2.5.2.9.5 1.1.8.3.4.5 1 .7 1.9h.6l-.2-3.8H36.6zm16.7 0v.5c.6 0 1 0 1.3.1.6.1 1 .4 1.3.5.3.1.7.5 1.3 1.1v11.9c0 .9-.1 1.5-.3 1.8-.3.5-.9.7-1.7.7h-.7v.5h6.7v-.5h-.7c-.8 0-1.3-.1-1.7-.5-.3-.3-.4-.9-.4-2v-10.5l12.7 13.8h.5V113c0-.9.1-1.5.3-1.8.3-.5.9-.7 1.7-.7h.7v-.5h-6.7v.4h.7c.8 0 1.3.1 1.7.5.3.3.4.9.4 2v9.9L58.6 110h-5.3zm29.3 0v.4h.7c.7 0 1.2.2 1.6.6.3.3.4.9.4 2v4.6h-2.8v.9h2.8v5.5c0 1-.1 1.6-.3 1.9-.3.5-.9.7-1.7.7h-.7v.5h8.5c3.7 0 6.5-.9 8.2-2.5 1.7-1.6 2.6-3.7 2.6-6.1 0-1.8-.5-3.4-1.4-4.7-.9-1.3-2.1-2.3-3.5-2.9-1.4-.6-3.6-.9-6.6-.9h-7.8zm41.1 0v.5c.6 0 1 0 1.3.1.6.1 1 .4 1.3.5.3.1.7.5 1.3 1.1v11.9c0 .9-.1 1.5-.3 1.8-.3.5-.9.7-1.7.7h-.7v.5h6.7v-.5h-.7c-.8 0-1.3-.1-1.7-.5-.3-.3-.4-.9-.4-2v-10.5l12.7 13.8h.5V113c0-.9.1-1.5.3-1.8.3-.5.9-.7 1.7-.7h.7v-.5H138v.4h.7c.8 0 1.3.1 1.7.5.3.3.4.9.4 2v9.9L129 110h-5.3zm29.3 0v.4h.7c.7 0 1.2.2 1.6.6.3.3.4.9.4 2v11c0 1-.1 1.6-.3 1.9-.3.5-.9.7-1.7.7h-.7v.6h8.6c3.8 0 6.6-.9 8.4-2.7 1.6-1.6 2.4-3.6 2.4-6 0-1.8-.5-3.3-1.4-4.7-.9-1.4-2.1-2.3-3.6-2.9-1.5-.6-3.7-.9-6.6-.9H153zm41 0v.5c.6 0 1 0 1.3.1.6.1 1 .4 1.3.5.3.1.7.5 1.3 1.1v11.9c0 .9-.1 1.5-.3 1.8-.3.5-.9.7-1.7.7h-.7v.5h6.7v-.5h-.7c-.8 0-1.3-.1-1.7-.5-.3-.3-.4-.9-.4-2v-10.5l12.7 13.8h.5V113c0-.9.1-1.5.3-1.8.3-.5.9-.7 1.7-.7h.7v-.5h-6.7v.4h.7c.8 0 1.3.1 1.7.5.3.3.4.9.4 2v9.9L199.3 110H194zm46.6 0v.4h.7c.7 0 1.2.2 1.6.6.3.3.4.9.4 2v11.1c0 1-.1 1.6-.3 1.9-.3.5-.9.7-1.7.7h-.7v.5h8.3v-.5h-.8c-.7 0-1.2-.2-1.6-.6-.3-.3-.4-.9-.4-2v-5h2l6.5 8h5.1v-.6c-1.1-.1-1.9-.3-2.6-.7-.6-.3-1.4-1.1-2.3-2.2l-4-4.9c1.6-.3 2.8-.8 3.6-1.6.8-.7 1.2-1.6 1.2-2.7 0-.9-.3-1.8-1-2.5s-1.5-1.2-2.5-1.5c-.9-.3-2.5-.4-4.5-.4h-7zm19.5 0v.5h.7c.4 0 .9.1 1.3.3.3.1.5.3.6.5.1.3.2.8.2 1.7v11.1c0 1-.1 1.6-.3 1.9-.3.4-.9.6-1.7.6h-.7v.5h8.3v-.5h-.8c-.5 0-.9-.1-1.3-.3-.3-.1-.5-.3-.6-.5-.1-.3-.2-.8-.2-1.7V113c0-1 .2-1.6.4-1.9.3-.4.9-.6 1.7-.6h.7v-.5h-8.3zm16.2 0v.5c.6.1 1.1.2 1.4.3.4.1.7.3.9.6.2.2.4.6.8 1.4l7.2 14.8h.5l6.7-14.6c.4-.9.8-1.5 1.3-1.9.3-.3.8-.5 1.5-.6v-.5h-5.7v.5h.2c.7.1 1.1.3 1.4.5.3.2.4.5.4.7 0 .3-.3 1-.7 2l-4.5 9.9-4.9-10c-.5-.9-.7-1.6-.7-2 0-.3.1-.5.4-.7.2-.2.8-.3 1.7-.4v-.5h-7.9zm21.2 0v.5h.7c.4 0 .9.1 1.3.3.3.1.5.3.6.5.1.3.2.8.2 1.7v11.1c0 1-.1 1.6-.3 1.9-.3.4-.9.6-1.7.6h-.7v.5h8.3v-.5h-.8c-.5 0-.9-.1-1.3-.3-.3-.1-.5-.3-.6-.5-.1-.3-.2-.8-.2-1.7V113c0-1 .2-1.6.4-1.9.3-.4.9-.6 1.7-.6h.7v-.5h-8.3zm9.8 0v.5h.7c.8 0 1.4.2 1.7.5.3.2.4.9.4 2v11c0 .9-.1 1.4-.2 1.7-.1.3-.3.5-.6.6-.4.2-.8.3-1.3.3h-.7v.5h14.9l1.7-4.3h-.6c-.6 1.1-1.2 1.9-1.8 2.4-.4.4-.9.7-1.4.8-.5.1-1.3.2-2.4.2h-3.3c-.6 0-.9 0-1.1-.1-.2-.1-.3-.2-.4-.4-.1-.2-.1-.6-.1-1.4v-5.6h4.2c.8 0 1.4.1 1.8.3.3.2.6.4.8.7.1.2.3.8.4 1.6h.4v-6h-.5c0 .9-.3 1.6-.8 2-.4.3-1.1.4-2.2.4h-4.2v-6.8h5.3c1 0 1.6.1 2 .2.5.2.9.5 1.1.8.3.4.5 1 .7 1.9h.6l-.2-3.8h-14.9zm41.2 0v.5c.6 0 1 0 1.3.1.6.1 1 .4 1.3.5.3.1.7.5 1.3 1.1v11.9c0 .9-.1 1.5-.3 1.8-.3.5-.9.7-1.7.7h-.7v.5h6.7v-.5h-.7c-.8 0-1.3-.1-1.7-.5-.3-.3-.4-.9-.4-2v-10.5l12.7 13.8h.5V113c0-.9.1-1.5.3-1.8.3-.5.9-.7 1.7-.7h.7v-.5h-6.7v.4h.7c.8 0 1.3.1 1.7.5.3.3.4.9.4 2v9.9L353.8 110h-5.3zm43.1 0v.5c.8 0 1.4 0 1.7.2.3.2.6.4.7.6.2.3.3.8.3 1.6v11.2c0 .9-.1 1.5-.3 1.8-.3.5-.9.7-1.7.7h-.7v.5h6.7v-.5h-.7c-.8 0-1.3-.1-1.7-.5-.3-.3-.4-.9-.4-2v-11.4l7.4 14.4v.1h.8l7.4-14.4v11.4c0 .9-.1 1.5-.3 1.8-.3.5-.9.7-1.7.7h-.7v.5h8.2v-.5h-.7c-.8 0-1.3-.1-1.7-.5-.3-.3-.4-.9-.4-2V113c0-.9.1-1.5.3-1.8.3-.5.9-.7 1.7-.7h.7v-.5H411l-6.9 13.4-7-13.4h-5.5zm-300.6.9c2.3 0 4.2.6 5.6 2 1.5 1.4 2.2 3.2 2.2 5.6 0 2.4-.7 4.2-2.2 5.6-1.5 1.4-3.3 2.1-5.5 2.1-.8 0-1.8-.2-3-.4v-7.3h5.6v-.9h-5.6v-6.3c1.1-.3 2-.4 2.9-.4zm157.3 0c1.2 0 2.2.3 3 1 .7.7 1.1 1.5 1.1 2.6s-.5 2-1.4 2.7c-1 .7-2.4 1.1-4.2 1.1h-.7v-7.2c.9-.1 1.7-.2 2.2-.2zm-234.1.1c2.3 0 4.2.6 5.6 2 1.5 1.4 2.2 3.2 2.2 5.6 0 2.4-.7 4.2-2.2 5.6-1.5 1.4-3.3 2.1-5.5 2.1-.8 0-1.8-.2-3-.4v-14.5c1.1-.3 2-.4 2.9-.4zm147.2 0c2.3 0 4.2.6 5.6 2 1.5 1.4 2.2 3.2 2.2 5.6 0 2.4-.7 4.2-2.2 5.6-1.5 1.4-3.3 2.1-5.5 2.1-.8 0-1.8-.2-3-.4v-14.5c1.1-.3 2-.4 2.9-.4zm-48.6 2.5l3.3 6.9h-6.7l3.4-6.9zm70.3 0l3.3 6.9h-6.7l3.4-6.9zm196.5 0l3.3 6.9h-6.7l3.4-6.9zm-64.2 15.1c-.4 0-.8.1-1.1.4-.3.3-.5.6-.5 1s.2.7.5 1c.3.3.7.4 1.1.4.4 0 .8-.1 1.1-.4.3-.3.5-.6.5-1s-.2-.7-.5-1c-.3-.3-.7-.4-1.1-.4z" fill-opacity=".941"/></svg>